<svg id="Capa_1" enable-background="new 0 0 512.27 512.27" height="512" viewBox="0 0 512.27 512.27" width="512" xmlns="http://www.w3.org/2000/svg"><g><path d="m36.864 452.27-30 60h498.541l-30-60z"/><path d="m403.717 332.27-11.297-137.27h-272.571l-11.296 137.27z"/><path d="m400.405 165 15-30h-318.541l15 30z"/><path d="m421.135 105v-105h-90v45h-30v-45h-90v45h-30v-45h-90v105z"/><path d="m106.135 422.27h300c16.569 0 30-13.432 30-30 0-16.569-13.431-30-30-30h-300c-16.569 0-30 13.431-30 30 0 16.568 13.431 30 30 30z"/></g></svg>